name C:\Users\antoi\Documents\MyRepositories\upper-imu-dc\Results\main_tracking\Case_91\kinematics.mot
datacolumns 43
datarows 4
range 3.00000000 3.06000000
endheader 
time	clav_prot	clav_elev	scapula_abduction	scapula_elevation	scapula_upward_rot	scapula_winging	plane_elv	shoulder_elv	axial_rot	TrapeziusScapula_M/activation	TrapeziusScapula_S/activation	TrapeziusScapula_I/activation	TrapeziusClavicle_S/activation	SerratusAnterior_I/activation	SerratusAnterior_M/activation	SerratusAnterior_S/activation	Rhomboideus_S/activation	Rhomboideus_I/activation	LevatorScapulae/activation	Coracobrachialis/activation	DeltoideusClavicle_A/activation	DeltoideusScapula_P/activation	DeltoideusScapula_M/activation	LatissimusDorsi_S/activation	LatissimusDorsi_M/activation	LatissimusDorsi_I/activation	PectoralisMajorClavicle_S/activation	PectoralisMajorThorax_I/activation	PectoralisMajorThorax_M/activation	TeresMajor/activation	Infraspinatus_I/activation	Infraspinatus_S/activation	PectoralisMinor/activation	TeresMinor/activation	Subscapularis_S/activation	Subscapularis_M/activation	Subscapularis_I/activation	Supraspinatus_P/activation	Supraspinatus_A/activation	TRIlong/activation	BIC_long/activation	BIC_brevis/activation	
          3.00000000	        -22.16626431	         -7.87717538	        -11.96725396	         -5.91966395	          9.87596944	          7.40698449	        -25.47014362	         16.47039425	         46.66138339	          0.01000000	          0.01000000	          0.01000000	          0.01000013	          0.01333334	          0.02370366	          0.03752957	          0.01000000	          0.01000000	          0.01557521	          0.01207230	          0.01000001	          0.01000000	          0.01000000	          0.01000000	          0.01000000	          0.01000003	          0.01333329	          0.04828890	          0.02951725	          0.05788925	          0.01000000	          0.01000000	          0.01000000	          0.01000000	          0.04218794	          0.03790283	          0.05610423	          0.01000002	          0.01000003	          0.09315218	          0.01000000	          0.01003073	
          3.02000000	        -21.88680869	         -7.78680335	        -12.58925836	         -5.68948249	          9.27938871	          7.51598682	        -24.14438592	         16.77341532	         45.42460381	          0.01000000	          0.01000000	          0.01000000	          0.01000000	          0.01000001	          0.01777774	          0.02814720	          0.01000006	          0.06548877	          0.03150580	          0.01000001	          0.01000000	          0.08146722	          0.01000000	          0.01000011	          0.01000122	          0.01000004	          0.01000000	          0.04225351	          0.02213794	          0.08726185	          0.01000000	          0.01000000	          0.04966883	          0.01000000	          0.03395484	          0.03826000	          0.06901731	          0.01000001	          0.01000001	          0.09312140	          0.01000000	          0.01000001	
          3.04000000	        -22.02133045	         -7.72005927	        -13.10165440	         -5.50933117	          8.78136223	          7.61336655	        -22.86906321	         17.08906490	         44.13922437	          0.01000000	          0.01000000	          0.01000000	          0.01000000	          0.01000000	          0.01333331	          0.02119535	          0.01165660	          0.07205491	          0.04264297	          0.01000000	          0.01000000	          0.09728329	          0.01759680	          0.01004035	          0.01175699	          0.01000005	          0.01000000	          0.03984272	          0.01660346	          0.09276551	          0.01000000	          0.01000000	          0.05673199	          0.01000000	          0.02621750	          0.03752438	          0.07078609	          0.01000001	          0.01000000	          0.09728182	          0.01000000	          0.01000000	
          3.06000000	        -22.14041379	         -7.65945580	        -13.54062997	         -5.35441120	          8.36446836	          7.69337454	        -21.70989494	         17.42311225	         42.81712966	          0.01000000	          0.01000000	          0.01000000	          0.01000000	          0.01000000	          0.01000000	          0.02314072	          0.01152689	          0.07256006	          0.04554312	          0.01000000	          0.01000000	          0.09687690	          0.02370784	          0.01000003	          0.01072242	          0.01000005	          0.01000000	          0.04010303	          0.01245261	          0.09004018	          0.01000000	          0.01000000	          0.05255563	          0.01000000	          0.02663887	          0.03689256	          0.06574282	          0.01000001	          0.01000000	          0.09925781	          0.01000000	          0.01000000	
